<svg width="32" height="32" viewBox="0 0 100 100" fill="none" xmlns="http://www.w3.org/2000/svg">
  <rect width="100" height="100" fill="#0F1923" rx="18"/>
  <g transform="translate(50,50) scale(0.37) translate(-121,-44)" fill="#FFD122">
    <path d="M119.537 61.7396C67.2844 61.7396 21.8317 71.4595 0 85.6793C24.8738 73.4396 68.8949 65.3396 119.179 65.3396C171.79 65.3396 217.6 74.1595 241.58 87.2993C220.822 72.1796 173.937 61.7396 119.537 61.7396Z"/>
    <path d="M90.369 59.9395L122.58 27.5397L155.148 60.4795L163.559 61.1995L122.58 19.9798L106.832 35.9997V27.5397H99.4955V43.3796L81.7797 61.1995L90.369 59.9395Z"/>
    <path d="M93.9475 59.7596L96.8106 59.5797L122.58 33.6599L148.527 59.5797L151.39 59.9396L122.58 31.1399L93.9475 59.7596Z"/>
    <path d="M154.075 48.2396L167.496 34.9197L200.065 67.6794L209.906 70.0194L167.496 27.3597L150.316 44.6396L154.075 48.2396Z"/>
    <path d="M155.864 50.0397L157.295 51.1197L167.495 40.8598L192.905 66.2396L196.126 66.9596L167.495 38.3398L155.864 50.0397Z"/>
    <path d="M78.5578 33.2998L91.7998 46.7998L95.7372 43.0197L78.5578 25.7399L35.9681 68.3996L45.8103 66.0595L78.5578 33.2998Z"/>
    <path d="M78.5591 36.7197L49.9275 65.5196L53.1485 64.7996L78.5591 39.2398L88.7592 49.6797L90.0117 48.4197L78.5591 36.7197Z"/>
    <path d="M155.864 8.27977L153.18 7.55983L142.98 38.8796L143.696 39.5996L155.864 8.27977Z"/>
    <path d="M137.52 33.2249C137.785 33.5442 138.301 33.3468 138.287 32.9315L137.297 1.36201C137.274 0.617621 136.641 0.0410946 135.902 0.0906303C135.171 0.139674 134.622 0.783609 134.686 1.51815L137.421 32.9833C137.429 33.0721 137.463 33.1565 137.52 33.2249Z"/>
  </g>
</svg>
