<svg width="242" height="125" viewBox="0 0 242 125" fill="none" xmlns="http://www.w3.org/2000/svg">
<g clip-path="url(#clip0_1079_3232)">
<path d="M42.2316 87.7401H34.179V85.5806H54.2211V87.7401H45.9895V108.26H42.2316V87.7401Z" fill="#3D3D3D"/>
<path d="M58.337 85.5806H65.8529C68.7161 85.5806 70.8634 86.1201 72.4739 87.3799C74.0844 88.6406 74.8002 90.2599 74.8002 92.4202C74.8002 94.5806 74.0844 96.2007 72.4739 97.4605C70.8634 98.7204 68.7161 99.2599 65.8529 99.2599H62.095V108.26H58.337V85.5806ZM65.8529 97.2804C67.4634 97.2804 68.716 96.9202 69.6107 96.0206C70.5055 95.1201 71.0424 94.0403 71.0424 92.4202C71.0424 90.8002 70.5055 89.7204 69.6107 88.8199C68.716 87.9202 67.4634 87.56 65.8529 87.56H62.095V97.2804H65.8529Z" fill="#3D3D3D"/>
<path d="M79.9893 85.5806H93.9469V87.56H83.9259V95.8405H91.0837V97.8199H83.9259V106.1H95.3784V108.08H80.1682V85.5806H79.9893Z" fill="#3D3D3D"/>
<path d="M99.6727 85.5806H104.863L112.199 103.4L119.536 85.5806H124.546V108.26H120.789V88.2804L112.736 108.26H110.231L102.178 88.4605V108.26H100.031V85.5806H99.6727Z" fill="#3D3D3D"/>
<path d="M131.706 85.5806H147.274V87.56H135.463V95.1201H140.474C143.158 95.1201 145.305 95.6604 146.737 96.9202C148.347 98 149.064 99.6201 149.064 101.78C149.064 103.76 148.347 105.38 146.737 106.64C145.127 107.72 143.158 108.44 140.474 108.44H131.706V85.5806ZM140.116 106.28C141.727 106.28 142.8 105.92 143.695 105.021C144.59 104.12 144.948 103.04 144.948 101.6C144.948 100.16 144.59 98.9005 143.695 98.1801C142.8 97.4605 141.548 96.9202 140.116 96.9202H135.463V106.28H140.116Z" fill="#3D3D3D"/>
<path d="M154.433 85.5806H158.369V108.26H154.433V85.5806Z" fill="#3D3D3D"/>
<path d="M170.538 87.7401H162.485V85.5806H182.528V87.7401H174.295V108.26H170.359V87.7401H170.538Z" fill="#3D3D3D"/>
<path d="M190.579 85.5806H194.516L203.463 108.26H199.347L196.842 101.78H186.642L184.137 108.26H181.811L190.579 85.5806ZM196.126 99.8002L191.652 88.6406H191.473L187 99.8002H196.126Z" fill="#3D3D3D"/>
<path d="M56.3678 117.08H60.4836V117.44H57.0836V119.78H58.5151C59.2309 119.78 59.7678 119.96 60.3046 120.32C60.6626 120.68 60.8415 121.04 60.8415 121.58C60.8415 122.12 60.6626 122.48 60.3046 122.84C59.9467 123.2 59.4099 123.38 58.5151 123.38H56.1888V117.08H56.3678ZM58.6941 123.02C59.2309 123.02 59.5889 122.84 59.7677 122.66C59.9467 122.48 60.1257 122.12 60.1257 121.58C60.1257 121.04 59.9467 120.86 59.7677 120.5C59.5889 120.14 59.052 120.14 58.6941 120.14H57.2625V122.84H58.6941V123.02Z" fill="#3D3D3D"/>
<path d="M64.242 123.56C63.8841 123.56 63.7051 123.56 63.5262 123.38C63.3473 123.2 63.1683 123.02 62.9894 122.84C62.8105 122.66 62.8104 122.3 62.8104 121.94V121.76H63.3472V122.12C63.3472 122.48 63.3473 122.66 63.5262 122.84C63.7051 123.02 63.8841 123.2 64.242 123.2C64.4209 123.2 64.7789 123.2 64.7789 123.02C64.7789 122.84 64.9578 122.66 64.9578 122.48C64.9578 122.3 64.9578 121.94 64.7789 121.76L61.9156 117.26H62.8104L65.1367 121.04C65.1367 121.22 65.3157 121.22 65.3157 121.4C65.3157 121.58 65.4946 121.76 65.4946 121.76L67.1052 117.26H67.6421L66.0315 122.3C65.8525 122.84 65.6736 123.2 65.3157 123.38C65.1367 123.56 64.7789 123.56 64.242 123.56Z" fill="#3D3D3D"/>
<path d="M68.537 123.02H69.2528C69.4317 122.48 69.6106 121.76 69.6106 121.22C69.6106 120.5 69.7896 119.78 69.7896 119.06C69.7896 118.88 69.7896 118.88 69.7896 118.7V118.52V117.26H74.2632V123.02H74.979V125H74.2632V123.38H69.4317V124.82H68.7159V123.02H68.537ZM73.1896 123.02V117.62H70.3265V118.88C70.3265 119.78 70.1475 120.5 70.1475 121.22C69.9685 121.94 69.9685 122.48 69.7896 123.02H73.1896Z" fill="#3D3D3D"/>
<path d="M76.9465 117.08H77.6623V123.38H76.9465V117.08Z" fill="#3D3D3D"/>
<path d="M80.5259 117.08H82.8524C83.5678 117.08 84.105 117.26 84.463 117.44C84.8203 117.8 84.9994 118.16 84.9994 118.7C84.9994 119.06 84.8203 119.42 84.6421 119.6C84.4631 119.78 84.105 119.96 83.7469 120.14C84.284 120.32 84.6413 120.5 84.8203 120.68C84.9994 120.86 85.1784 121.22 85.1784 121.76C85.1784 122.12 84.9994 122.3 84.8203 122.66C84.6413 122.84 84.4631 123.02 84.105 123.2C83.7469 123.38 83.3888 123.38 82.8524 123.38H80.3469V117.08H80.5259ZM83.0315 120.14C83.5678 120.14 83.9259 119.96 84.105 119.78C84.284 119.6 84.463 119.24 84.463 118.88C84.463 118.52 84.284 118.16 84.105 117.98C83.9259 117.8 83.5678 117.62 83.0315 117.62H81.4206V120.14H83.0315ZM83.0315 123.02C83.5678 123.02 83.9259 122.84 84.105 122.66C84.284 122.48 84.463 122.12 84.463 121.76C84.463 121.4 84.284 121.04 84.105 120.86C83.7469 120.68 83.3888 120.5 83.0315 120.5H81.2417V123.02H83.0315Z" fill="#3D3D3D"/>
<path d="M87.6824 117.08H91.4407V117.44H88.5768V119.96H90.7245V120.32H88.5768V122.84H91.798V123.2H87.6824V117.08Z" fill="#3D3D3D"/>
<path d="M93.4096 123.56C93.2306 123.56 93.2306 123.56 93.0523 123.56C92.8733 123.56 92.8733 123.56 92.8733 123.56V122.84C93.0523 122.84 93.0523 122.84 93.2306 122.84C93.2306 122.84 93.4096 122.84 93.5887 122.84C93.7677 122.84 93.9468 122.84 93.9468 122.66C94.1258 122.66 94.1258 122.48 94.3049 122.3C94.3049 122.12 94.4839 121.94 94.4839 121.76C94.6629 121.4 94.6621 120.86 94.6621 120.32C94.6621 119.78 94.6621 119.06 94.6621 118.16V117.08H98.9576V123.38H98.0624V117.62H95.1993V118.34C95.1993 119.42 95.1993 120.14 95.0202 120.86C95.0202 121.58 94.8412 122.12 94.6621 122.48C94.4839 122.84 94.4839 123.02 94.3049 123.2C93.7677 123.56 93.5887 123.56 93.4096 123.56Z" fill="#3D3D3D"/>
<path d="M101.463 117.08H102.357V119.6H103.61C104.326 119.6 105.041 119.78 105.399 120.14C105.757 120.5 106.115 120.86 106.115 121.58C106.115 121.94 105.936 122.3 105.757 122.48C105.578 122.66 105.22 123.02 104.862 123.2C104.504 123.38 104.147 123.38 103.61 123.38H101.641V117.08H101.463ZM103.431 123.02C103.968 123.02 104.326 122.84 104.683 122.66C105.041 122.48 105.041 122.12 105.041 121.58C105.041 121.04 104.862 120.86 104.683 120.5C104.504 120.14 103.968 120.14 103.431 120.14H102.178V123.02H103.431Z" fill="#3D3D3D"/>
<path d="M108.083 117.08H108.978V119.96H112.557V117.08H113.452V123.38H112.557V120.5H108.978V123.38H108.083V117.08Z" fill="#3D3D3D"/>
<path d="M117.747 117.08H118.642L121.147 123.38H120.253L119.537 121.58H116.494L115.779 123.38H115.242L117.747 117.08ZM119.357 121.22L117.926 117.8L116.494 121.22H119.357Z" fill="#3D3D3D"/>
<path d="M125.979 117.08H126.873V119.96H127.948L130.274 117.08H130.811L128.484 119.96L130.989 123.38H130.095L127.948 120.5H126.873V123.38H125.979V117.08Z" fill="#3D3D3D"/>
<path d="M135.463 123.56C134.926 123.56 134.21 123.38 133.852 123.2C133.315 122.84 132.958 122.48 132.6 121.94C132.242 121.4 132.242 120.86 132.242 120.32C132.242 119.78 132.421 119.06 132.6 118.7C132.958 118.16 133.315 117.8 133.852 117.44C134.389 117.08 134.926 117.08 135.463 117.08C135.999 117.08 136.715 117.26 137.074 117.44C137.61 117.8 137.968 118.16 138.147 118.7C138.505 119.24 138.505 119.78 138.505 120.32C138.505 120.86 138.326 121.58 138.147 121.94C137.789 122.48 137.432 122.84 137.074 123.2C136.536 123.38 135.999 123.56 135.463 123.56ZM135.463 123.02C135.999 123.02 136.357 122.84 136.715 122.66C137.074 122.48 137.431 122.12 137.61 121.76C137.789 121.4 137.968 120.86 137.968 120.32C137.968 119.78 137.789 119.24 137.61 118.88C137.431 118.52 137.074 118.16 136.715 117.98C136.357 117.8 135.999 117.62 135.463 117.62C134.926 117.62 134.568 117.8 134.21 117.98C133.852 118.16 133.494 118.52 133.315 118.88C133.136 119.24 132.958 119.78 132.958 120.32C132.958 120.86 133.136 121.4 133.315 121.76C133.494 122.12 133.852 122.48 134.21 122.66C134.568 122.84 134.926 123.02 135.463 123.02Z" fill="#3D3D3D"/>
<path d="M141.011 117.08H142.084L144.41 122.48L146.737 117.08H147.81V123.38H146.916V117.62L144.589 123.38H144.052L141.726 117.62V123.38H141.189V117.08H141.011Z" fill="#3D3D3D"/>
<path d="M150.494 117.08H155.684V123.38H154.789V117.62H151.21V123.38H150.315V117.08H150.494Z" fill="#3D3D3D"/>
<path d="M160.158 117.08H161.053L163.558 123.38H162.663L161.947 121.58H158.905L158.19 123.38H157.653L160.158 117.08ZM161.768 121.22L160.337 117.8L158.905 121.22H161.768Z" fill="#3D3D3D"/>
<path d="M165.347 117.08H166.242V119.96H169.82V117.08H170.716V123.38H169.82V120.5H166.242V123.38H165.347V117.08Z" fill="#3D3D3D"/>
<path d="M173.399 117.08H174.294V123.38H173.399V117.08Z" fill="#3D3D3D"/>
<path d="M178.052 120.68C177.694 120.5 177.336 120.32 176.978 120.14C176.62 119.96 176.621 119.42 176.621 119.06C176.621 118.52 176.799 117.98 177.336 117.62C177.873 117.26 178.409 117.08 179.126 117.08H181.093V123.38H180.199V120.68H179.126L177.157 123.38H176.262L178.052 120.68ZM180.378 120.5V117.62H179.126C178.588 117.62 178.23 117.8 177.873 117.98C177.515 118.16 177.515 118.52 177.515 119.06C177.515 119.42 177.694 119.78 177.873 120.14C178.23 120.32 178.588 120.5 179.126 120.5H180.378Z" fill="#3D3D3D"/>
<path d="M34.1782 120.423L47.9573 121.142V119.702L34.1782 120.423Z" fill="#3D3D3D"/>
<path d="M203.463 120.14L189.685 119.6V121.04L203.463 120.14Z" fill="#3D3D3D"/>
<path d="M119.537 61.7396C67.2844 61.7396 21.8317 71.4595 0 85.6793C24.8738 73.4396 68.8949 65.3396 119.179 65.3396C171.79 65.3396 217.6 74.1595 241.58 87.2993C220.822 72.1796 173.937 61.7396 119.537 61.7396Z" fill="url(#paint0_radial_1079_3232)"/>
<path d="M90.369 59.9395L122.58 27.5397L155.148 60.4795L163.559 61.1995L122.58 19.9798L106.832 35.9997V27.5397H99.4955V43.3796L81.7797 61.1995L90.369 59.9395Z" fill="url(#paint1_radial_1079_3232)"/>
<path d="M93.9475 59.7596L96.8106 59.5797L122.58 33.6599L148.527 59.5797L151.39 59.9396L122.58 31.1399L93.9475 59.7596Z" fill="url(#paint2_radial_1079_3232)"/>
<path d="M154.075 48.2396L167.496 34.9197L200.065 67.6794L209.906 70.0194L167.496 27.3597L150.316 44.6396L154.075 48.2396Z" fill="url(#paint3_radial_1079_3232)"/>
<path d="M155.864 50.0397L157.295 51.1197L167.495 40.8598L192.905 66.2396L196.126 66.9596L167.495 38.3398L155.864 50.0397Z" fill="url(#paint4_radial_1079_3232)"/>
<path d="M78.5578 33.2998L91.7998 46.7998L95.7372 43.0197L78.5578 25.7399L35.9681 68.3996L45.8103 66.0595L78.5578 33.2998Z" fill="url(#paint5_radial_1079_3232)"/>
<path d="M78.5591 36.7197L49.9275 65.5196L53.1485 64.7996L78.5591 39.2398L88.7592 49.6797L90.0117 48.4197L78.5591 36.7197Z" fill="url(#paint6_radial_1079_3232)"/>
<path d="M155.864 8.27977L153.18 7.55983L142.98 38.8796L143.696 39.5996L155.864 8.27977Z" fill="url(#paint7_radial_1079_3232)"/>
<path d="M137.52 33.2249C137.785 33.5442 138.301 33.3468 138.287 32.9315L137.297 1.36201C137.274 0.617621 136.641 0.0410946 135.902 0.0906303C135.171 0.139674 134.622 0.783609 134.686 1.51815L137.421 32.9833C137.429 33.0721 137.463 33.1565 137.52 33.2249Z" fill="url(#paint8_radial_1079_3232)"/>
</g>
<defs>
<radialGradient id="paint0_radial_1079_3232" cx="0" cy="0" r="1" gradientUnits="userSpaceOnUse" gradientTransform="translate(120.79 59.3541) rotate(20.6958) scale(79.0748 76.4074)">
<stop stop-color="#FFE498"/>
<stop offset="0.701469" stop-color="#FFD122"/>
</radialGradient>
<radialGradient id="paint1_radial_1079_3232" cx="0" cy="0" r="1" gradientUnits="userSpaceOnUse" gradientTransform="translate(122.669 16.1326) rotate(60.9417) scale(51.5565 63.9763)">
<stop stop-color="#FFE498"/>
<stop offset="0.701469" stop-color="#FFD122"/>
</radialGradient>
<radialGradient id="paint2_radial_1079_3232" cx="0" cy="0" r="1" gradientUnits="userSpaceOnUse" gradientTransform="translate(122.669 28.4519) rotate(60.8124) scale(36.0673 44.881)">
<stop stop-color="#FFE498"/>
<stop offset="0.701469" stop-color="#FFD122"/>
</radialGradient>
<radialGradient id="paint3_radial_1079_3232" cx="0" cy="0" r="1" gradientUnits="userSpaceOnUse" gradientTransform="translate(180.112 23.3781) rotate(68.6342) scale(50.0833 49.665)">
<stop stop-color="#FFE498"/>
<stop offset="0.701469" stop-color="#FFD122"/>
</radialGradient>
<radialGradient id="paint4_radial_1079_3232" cx="0" cy="0" r="1" gradientUnits="userSpaceOnUse" gradientTransform="translate(175.994 35.6687) rotate(68.4955) scale(33.6321 33.5256)">
<stop stop-color="#FFE498"/>
<stop offset="0.701469" stop-color="#FFD122"/>
</radialGradient>
<radialGradient id="paint5_radial_1079_3232" cx="0" cy="0" r="1" gradientUnits="userSpaceOnUse" gradientTransform="translate(65.8524 21.7583) rotate(68.5758) scale(50.1033 49.7943)">
<stop stop-color="#FFE498"/>
<stop offset="0.701469" stop-color="#FFD122"/>
</radialGradient>
<radialGradient id="paint6_radial_1079_3232" cx="0" cy="0" r="1" gradientUnits="userSpaceOnUse" gradientTransform="translate(69.9697 34.0318) rotate(68.7043) scale(33.7954 33.4243)">
<stop stop-color="#FFE498"/>
<stop offset="0.701469" stop-color="#FFD122"/>
</radialGradient>
<radialGradient id="paint7_radial_1079_3232" cx="0" cy="0" r="1" gradientUnits="userSpaceOnUse" gradientTransform="translate(149.422 4.56946) rotate(83.5743) scale(35.2516 11.4584)">
<stop stop-color="#FFE498"/>
<stop offset="0.701469" stop-color="#FFD122"/>
</radialGradient>
<radialGradient id="paint8_radial_1079_3232" cx="0" cy="0" r="1" gradientUnits="userSpaceOnUse" gradientTransform="translate(136.449 -3.19197) rotate(88.2373) scale(37.4094 3.36159)">
<stop stop-color="#FFE498"/>
<stop offset="0.701469" stop-color="#FFD122"/>
</radialGradient>
<clipPath id="clip0_1079_3232">
<rect width="242" height="125" fill="white"/>
</clipPath>
</defs>
</svg>
